<?xml version="1.0" encoding="UTF-8"?>
<!DOCTYPE svg PUBLIC "-//W3C//DTD SVG 1.1//EN" "http://www.w3.org/Graphics/SVG/1.1/DTD/svg11.dtd">
<svg xmlns="http://www.w3.org/2000/svg" version="1.1" width="4453px" height="4453px" style="shape-rendering:geometricPrecision; text-rendering:geometricPrecision; image-rendering:optimizeQuality; fill-rule:evenodd; clip-rule:evenodd" xmlns:xlink="http://www.w3.org/1999/xlink">
<g><path style="opacity:0.973" fill="#fefffe" d="M 2705.5,1858.5 C 2711.51,1859.11 2717.51,1859.95 2723.5,1861C 2726.1,1861.93 2727.6,1863.77 2728,1866.5C 2728.67,1980.5 2728.67,2094.5 2728,2208.5C 2727.06,2211.77 2724.89,2213.61 2721.5,2214C 2713.5,2214.67 2705.5,2214.67 2697.5,2214C 2694.09,2213.88 2691.59,2212.38 2690,2209.5C 2689.67,2199.17 2689.33,2188.83 2689,2178.5C 2674.54,2194.3 2657.38,2206.13 2637.5,2214C 2608.59,2222.06 2581.59,2218.06 2556.5,2202C 2537.6,2185.71 2525.77,2165.21 2521,2140.5C 2513.12,2101.18 2515.46,2062.51 2528,2024.5C 2547.24,1979.8 2581.07,1960.3 2629.5,1966C 2651.05,1970.69 2669.22,1981.19 2684,1997.5C 2684.33,1953.5 2684.67,1909.5 2685,1865.5C 2685.83,1863.33 2687.33,1861.83 2689.5,1861C 2694.96,1860.06 2700.29,1859.22 2705.5,1858.5 Z M 2608.5,2002.5 C 2621.54,2000.93 2633.87,2003.1 2645.5,2009C 2660.54,2018.37 2673.37,2030.2 2684,2044.5C 2684.67,2075.5 2684.67,2106.5 2684,2137.5C 2673.04,2152.13 2659.87,2164.3 2644.5,2174C 2607.91,2189.12 2582.41,2178.28 2568,2141.5C 2557.43,2106.91 2558.09,2072.58 2570,2038.5C 2577,2020 2589.83,2008 2608.5,2002.5 Z"/></g>
<g><path style="opacity:0.971" fill="#fefffe" d="M 2159.5,1874.5 C 2167.27,1874.4 2174.44,1876.4 2181,1880.5C 2182.89,1883.62 2184.23,1886.95 2185,1890.5C 2185.82,1898.55 2185.49,1906.55 2184,1914.5C 2181.55,1920.62 2177.05,1924.12 2170.5,1925C 2161.44,1925.88 2152.44,1925.55 2143.5,1924C 2138.16,1921.99 2135,1918.16 2134,1912.5C 2131.52,1901.8 2132.52,1891.47 2137,1881.5C 2143.74,1876.49 2151.24,1874.16 2159.5,1874.5 Z"/></g>
<g><path style="opacity:0.977" fill="#fefffe" d="M 1388.5,1964.5 C 1398.84,1964.93 1408.84,1967.1 1418.5,1971C 1419.33,1971.83 1420.17,1972.67 1421,1973.5C 1422.1,1979.42 1422.6,1985.42 1422.5,1991.5C 1422.6,1997.58 1422.1,2003.58 1421,2009.5C 1419.67,2011.83 1417.67,2012.83 1415,2012.5C 1408.58,2010.47 1402.08,2008.64 1395.5,2007C 1384.05,2004.61 1373.72,2006.94 1364.5,2014C 1351.28,2026.62 1340.12,2040.79 1331,2056.5C 1330.67,2107.83 1330.33,2159.17 1330,2210.5C 1328.2,2212.32 1326.03,2213.48 1323.5,2214C 1313.09,2214.93 1302.76,2214.59 1292.5,2213C 1290.33,2212.17 1288.83,2210.67 1288,2208.5C 1287.01,2129.78 1287.34,2051.11 1289,1972.5C 1290.65,1971.28 1292.48,1970.45 1294.5,1970C 1304.17,1968.39 1313.84,1968.72 1323.5,1971C 1324.33,1971.83 1325.17,1972.67 1326,1973.5C 1326.33,1985.17 1326.67,1996.83 1327,2008.5C 1335.71,1995.45 1346.21,1983.95 1358.5,1974C 1367.75,1968.08 1377.75,1964.91 1388.5,1964.5 Z"/></g>
<g><path style="opacity:0.973" fill="#fefffe" d="M 1557.5,1964.5 C 1620.99,1966.87 1654.83,1999.87 1659,2063.5C 1659.89,2072.9 1659.55,2082.23 1658,2091.5C 1655.05,2097.43 1650.22,2100.6 1643.5,2101C 1593.17,2101.5 1542.83,2101.67 1492.5,2101.5C 1493.54,2162.71 1524.54,2189.55 1585.5,2182C 1603.22,2179.43 1620.22,2174.43 1636.5,2167C 1639.83,2166.33 1643.17,2166.33 1646.5,2167C 1647.72,2168.65 1648.55,2170.48 1649,2172.5C 1649.86,2180.23 1649.52,2187.9 1648,2195.5C 1644.17,2200.84 1639.01,2204.34 1632.5,2206C 1598.94,2217.73 1564.61,2220.73 1529.5,2215C 1487.23,2205.06 1461.4,2178.9 1452,2136.5C 1444.21,2099.8 1446.54,2063.8 1459,2028.5C 1478.46,1986.68 1511.29,1965.35 1557.5,1964.5 Z M 1544.5,1999.5 C 1583.66,1995.14 1607.16,2012.14 1615,2050.5C 1615.59,2056.5 1616.09,2062.5 1616.5,2068.5C 1575.5,2068.5 1534.5,2068.5 1493.5,2068.5C 1493.55,2042.23 1504.21,2021.73 1525.5,2007C 1531.6,2003.58 1537.94,2001.08 1544.5,1999.5 Z"/></g>
<g><path style="opacity:0.98" fill="#fefffe" d="M 1834.5,1964.5 C 1868.15,1964.14 1891.81,1979.14 1905.5,2009.5C 1920.5,1991.99 1938.5,1978.49 1959.5,1969C 1982.22,1962.48 2004.22,1964.48 2025.5,1975C 2043.75,1986.97 2054.92,2003.8 2059,2025.5C 2060.33,2032.45 2061.33,2039.45 2062,2046.5C 2062.67,2100.83 2062.67,2155.17 2062,2209.5C 2060.26,2212.23 2057.76,2213.73 2054.5,2214C 2045.5,2214.67 2036.5,2214.67 2027.5,2214C 2024.54,2213.77 2022.04,2212.6 2020,2210.5C 2019.67,2159.5 2019.33,2108.5 2019,2057.5C 2019.03,2040.24 2013.53,2025.07 2002.5,2012C 1990.62,2002.59 1977.29,1999.92 1962.5,2004C 1953.52,2007.49 1945.52,2012.49 1938.5,2019C 1929.75,2027.36 1921.59,2036.19 1914,2045.5C 1913.67,2100.5 1913.33,2155.5 1913,2210.5C 1910.96,2212.6 1908.46,2213.77 1905.5,2214C 1896.5,2214.67 1887.5,2214.67 1878.5,2214C 1875.42,2213.38 1872.92,2211.88 1871,2209.5C 1870.67,2157.17 1870.33,2104.83 1870,2052.5C 1869.07,2037.2 1863.57,2023.87 1853.5,2012.5C 1841.8,2002.59 1828.47,1999.76 1813.5,2004C 1799.37,2010.45 1787.21,2019.61 1777,2031.5C 1772.62,2036.21 1768.62,2041.21 1765,2046.5C 1764.67,2101.17 1764.33,2155.83 1764,2210.5C 1762.2,2212.32 1760.03,2213.48 1757.5,2214C 1748.17,2214.67 1738.83,2214.67 1729.5,2214C 1726.97,2213.48 1724.8,2212.32 1723,2210.5C 1721.84,2171.08 1721.34,2131.58 1721.5,2092C 1721.34,2052.11 1721.84,2012.28 1723,1972.5C 1724.65,1971.28 1726.48,1970.45 1728.5,1970C 1738.12,1968.38 1747.78,1968.71 1757.5,1971C 1758.33,1971.83 1759.17,1972.67 1760,1973.5C 1760.33,1984.17 1760.67,1994.83 1761,2005.5C 1774.78,1989.54 1791.28,1977.37 1810.5,1969C 1818.46,1966.52 1826.46,1965.02 1834.5,1964.5 Z"/></g>
<g><path style="opacity:0.979" fill="#fefffe" d="M 2372.5,1964.5 C 2417.85,1965.19 2444.52,1987.85 2452.5,2032.5C 2453.87,2041.45 2454.71,2050.45 2455,2059.5C 2455.67,2109.17 2455.67,2158.83 2455,2208.5C 2453.52,2211.66 2451.02,2213.5 2447.5,2214C 2438.17,2214.67 2428.83,2214.67 2419.5,2214C 2416.97,2213.48 2414.8,2212.32 2413,2210.5C 2412.67,2162.17 2412.33,2113.83 2412,2065.5C 2412.94,2045.06 2406.78,2027.23 2393.5,2012C 2378.64,2001.7 2362.64,1999.7 2345.5,2006C 2333.87,2012.29 2323.37,2020.13 2314,2029.5C 2308.96,2034.88 2304.29,2040.54 2300,2046.5C 2299.67,2101.17 2299.33,2155.83 2299,2210.5C 2297.2,2212.32 2295.03,2213.48 2292.5,2214C 2282.09,2214.93 2271.76,2214.59 2261.5,2213C 2259.33,2212.17 2257.83,2210.67 2257,2208.5C 2256.01,2129.78 2256.34,2051.11 2258,1972.5C 2259.65,1971.28 2261.48,1970.45 2263.5,1970C 2273.17,1968.39 2282.84,1968.72 2292.5,1971C 2293.33,1971.83 2294.17,1972.67 2295,1973.5C 2295.33,1984.17 2295.67,1994.83 2296,2005.5C 2310.7,1987.9 2328.87,1975.4 2350.5,1968C 2357.89,1966.3 2365.23,1965.14 2372.5,1964.5 Z"/></g>
<g><path style="opacity:0.973" fill="#fefffe" d="M 2899.5,1964.5 C 2962.99,1966.87 2996.83,1999.87 3001,2063.5C 3001.89,2072.9 3001.55,2082.23 3000,2091.5C 2997.05,2097.43 2992.22,2100.6 2985.5,2101C 2935.17,2101.5 2884.83,2101.67 2834.5,2101.5C 2835.54,2162.71 2866.54,2189.55 2927.5,2182C 2945.22,2179.43 2962.22,2174.43 2978.5,2167C 2981.83,2166.33 2985.17,2166.33 2988.5,2167C 2989.72,2168.65 2990.55,2170.48 2991,2172.5C 2991.86,2180.23 2991.52,2187.9 2990,2195.5C 2986.17,2200.84 2981.01,2204.34 2974.5,2206C 2940.94,2217.73 2906.61,2220.73 2871.5,2215C 2829.23,2205.06 2803.4,2178.9 2794,2136.5C 2786.21,2099.8 2788.54,2063.8 2801,2028.5C 2820.46,1986.68 2853.29,1965.35 2899.5,1964.5 Z M 2886.5,1999.5 C 2925.66,1995.14 2949.16,2012.14 2957,2050.5C 2957.59,2056.5 2958.09,2062.5 2958.5,2068.5C 2917.5,2068.5 2876.5,2068.5 2835.5,2068.5C 2835.55,2042.23 2846.21,2021.73 2867.5,2007C 2873.6,2003.58 2879.94,2001.08 2886.5,1999.5 Z"/></g>
<g><path style="opacity:0.977" fill="#fefffe" d="M 3164.5,1964.5 C 3174.84,1964.93 3184.84,1967.1 3194.5,1971C 3195.33,1971.83 3196.17,1972.67 3197,1973.5C 3198.1,1979.42 3198.6,1985.42 3198.5,1991.5C 3198.6,1997.58 3198.1,2003.58 3197,2009.5C 3195.67,2011.83 3193.67,2012.83 3191,2012.5C 3184.58,2010.47 3178.08,2008.64 3171.5,2007C 3160.05,2004.61 3149.72,2006.94 3140.5,2014C 3127.28,2026.62 3116.12,2040.79 3107,2056.5C 3106.67,2107.83 3106.33,2159.17 3106,2210.5C 3104.2,2212.32 3102.03,2213.48 3099.5,2214C 3089.09,2214.93 3078.76,2214.59 3068.5,2213C 3066.33,2212.17 3064.83,2210.67 3064,2208.5C 3063.01,2129.78 3063.34,2051.11 3065,1972.5C 3066.65,1971.28 3068.48,1970.45 3070.5,1970C 3080.17,1968.39 3089.84,1968.72 3099.5,1971C 3100.33,1971.83 3101.17,1972.67 3102,1973.5C 3102.33,1985.17 3102.67,1996.83 3103,2008.5C 3111.71,1995.45 3122.21,1983.95 3134.5,1974C 3143.75,1968.08 3153.75,1964.91 3164.5,1964.5 Z"/></g>
<g><path style="opacity:0.98" fill="#fefffe" d="M 2158.5,1968.5 C 2163.45,1969.23 2168.45,1969.73 2173.5,1970C 2176.03,1970.52 2178.2,1971.68 2180,1973.5C 2180.67,2052.5 2180.67,2131.5 2180,2210.5C 2178.2,2212.32 2176.03,2213.48 2173.5,2214C 2164.17,2214.67 2154.83,2214.67 2145.5,2214C 2141.98,2213.5 2139.48,2211.66 2138,2208.5C 2137.33,2130.83 2137.33,2053.17 2138,1975.5C 2138.83,1973.33 2140.33,1971.83 2142.5,1971C 2147.94,1969.99 2153.27,1969.16 2158.5,1968.5 Z"/></g>
</svg>
