<?xml version="1.0" encoding="UTF-8"?>
<!DOCTYPE svg PUBLIC "-//W3C//DTD SVG 1.1//EN" "http://www.w3.org/Graphics/SVG/1.1/DTD/svg11.dtd">
<svg xmlns="http://www.w3.org/2000/svg" version="1.1" width="4453px" height="4453px" style="shape-rendering:geometricPrecision; text-rendering:geometricPrecision; image-rendering:optimizeQuality; fill-rule:evenodd; clip-rule:evenodd" xmlns:xlink="http://www.w3.org/1999/xlink">
<g><path style="opacity:0.971" fill="#fefffe" d="M 2594.5,1928.5 C 2599.48,1929.2 2604.48,1930.03 2609.5,1931C 2610.89,1932.17 2611.73,1933.67 2612,1935.5C 2612.83,2027.03 2612.66,2118.53 2611.5,2210C 2610.56,2211.48 2609.22,2212.48 2607.5,2213C 2599.42,2213.9 2591.42,2213.57 2583.5,2212C 2583,2211.5 2582.5,2211 2582,2210.5C 2581.67,2201.83 2581.33,2193.17 2581,2184.5C 2568.82,2199 2553.65,2209.17 2535.5,2215C 2488.98,2222.51 2459.48,2203.67 2447,2158.5C 2439.99,2126.46 2441.32,2094.8 2451,2063.5C 2463.53,2031.06 2487.2,2014.4 2522,2013.5C 2544,2015 2562.33,2024 2577,2040.5C 2577.33,2004.5 2577.67,1968.5 2578,1932.5C 2579.65,1931.28 2581.48,1930.45 2583.5,1930C 2587.36,1929.82 2591.02,1929.32 2594.5,1928.5 Z M 2515.5,2044.5 C 2527.28,2042.93 2538.28,2045.09 2548.5,2051C 2559.62,2058.46 2569.12,2067.62 2577,2078.5C 2577.67,2102.83 2577.67,2127.17 2577,2151.5C 2568.79,2162.71 2558.96,2172.21 2547.5,2180C 2531.77,2188.64 2516.1,2188.64 2500.5,2180C 2488.2,2168.56 2481.37,2154.4 2480,2137.5C 2476.79,2116.08 2478.46,2095.08 2485,2074.5C 2490.48,2059.52 2500.64,2049.52 2515.5,2044.5 Z"/></g>
<g><path style="opacity:0.967" fill="#fefffe" d="M 2157.5,1941.5 C 2163.74,1941.7 2169.57,1943.36 2175,1946.5C 2184.7,1978.13 2173.53,1989.3 2141.5,1980C 2139.95,1978.79 2138.78,1977.29 2138,1975.5C 2136.44,1968.25 2136.11,1960.91 2137,1953.5C 2137.83,1947.33 2141.33,1943.83 2147.5,1943C 2151.03,1942.82 2154.36,1942.32 2157.5,1941.5 Z"/></g>
<g><path style="opacity:0.981" fill="#fefffe" d="M 1540.5,2013.5 C 1547.22,2014.1 1553.89,2015.27 1560.5,2017C 1563.2,2017.69 1565.36,2019.19 1567,2021.5C 1568.97,2030.82 1568.97,2040.16 1567,2049.5C 1566.1,2051.37 1564.6,2052.37 1562.5,2052.5C 1542.91,2042.91 1526.08,2046.24 1512,2062.5C 1505.94,2070.22 1500.28,2078.22 1495,2086.5C 1494.67,2127.83 1494.33,2169.17 1494,2210.5C 1492.83,2211.89 1491.33,2212.73 1489.5,2213C 1480.42,2213.91 1471.42,2213.58 1462.5,2212C 1462,2211.5 1461.5,2211 1461,2210.5C 1460.33,2147.17 1460.33,2083.83 1461,2020.5C 1461.9,2019.3 1463.07,2018.47 1464.5,2018C 1472.81,2016.39 1481.14,2016.72 1489.5,2019C 1490,2019.5 1490.5,2020 1491,2020.5C 1491.33,2029.5 1491.67,2038.5 1492,2047.5C 1500.26,2034.57 1511.1,2024.4 1524.5,2017C 1529.87,2015.36 1535.2,2014.2 1540.5,2013.5 Z"/></g>
<g><path style="opacity:0.971" fill="#fefffe" d="M 1675.5,2013.5 C 1718.33,2013.52 1744.83,2034.18 1755,2075.5C 1757.69,2089.15 1758.03,2102.81 1756,2116.5C 1753.34,2120.59 1749.5,2122.75 1744.5,2123C 1704.5,2123.5 1664.5,2123.67 1624.5,2123.5C 1624.85,2173.34 1649.85,2194.84 1699.5,2188C 1704.53,2187.16 1709.53,2186.16 1714.5,2185C 1724.05,2181.82 1733.55,2178.65 1743,2175.5C 1746.13,2175.28 1748.13,2176.62 1749,2179.5C 1749.67,2185.5 1749.67,2191.5 1749,2197.5C 1746.12,2202.21 1741.95,2205.37 1736.5,2207C 1710.19,2216.41 1683.19,2219.07 1655.5,2215C 1617.49,2206.65 1595.65,2183.15 1590,2144.5C 1585.86,2118.34 1587.86,2092.67 1596,2067.5C 1610.89,2032.47 1637.39,2014.47 1675.5,2013.5 Z M 1664.5,2041.5 C 1704.38,2038.71 1723.71,2057.37 1722.5,2097.5C 1689.83,2097.5 1657.17,2097.5 1624.5,2097.5C 1624.73,2078.22 1632.06,2062.39 1646.5,2050C 1652.21,2046.31 1658.21,2043.48 1664.5,2041.5 Z"/></g>
<g><path style="opacity:0.983" fill="#fefffe" d="M 1896.5,2013.5 C 1923.85,2012.75 1943.02,2024.75 1954,2049.5C 1965.11,2037.05 1977.94,2026.88 1992.5,2019C 2013.51,2011.28 2033.84,2012.95 2053.5,2024C 2069.23,2036.62 2077.73,2053.12 2079,2073.5C 2079.67,2119.17 2079.67,2164.83 2079,2210.5C 2078.5,2211 2078,2211.5 2077.5,2212C 2068.58,2213.58 2059.58,2213.91 2050.5,2213C 2048.67,2212.73 2047.17,2211.89 2046,2210.5C 2045.67,2170.17 2045.33,2129.83 2045,2089.5C 2045.07,2074.71 2040.24,2061.87 2030.5,2051C 2016,2042.13 2001.67,2042.47 1987.5,2052C 1977.63,2060.2 1968.8,2069.37 1961,2079.5C 1960.67,2123.17 1960.33,2166.83 1960,2210.5C 1959.5,2211 1959,2211.5 1958.5,2212C 1949.58,2213.58 1940.58,2213.91 1931.5,2213C 1929.67,2212.73 1928.17,2211.89 1927,2210.5C 1926.67,2169.83 1926.33,2129.17 1926,2088.5C 1925.83,2074.66 1921.33,2062.5 1912.5,2052C 1897.9,2042.04 1883.23,2042.04 1868.5,2052C 1859,2060.17 1850.17,2069 1842,2078.5C 1841.67,2122.5 1841.33,2166.5 1841,2210.5C 1839.83,2211.89 1838.33,2212.73 1836.5,2213C 1828.5,2213.67 1820.5,2213.67 1812.5,2213C 1810.67,2212.73 1809.17,2211.89 1808,2210.5C 1807.33,2147.17 1807.33,2083.83 1808,2020.5C 1808.9,2019.3 1810.07,2018.47 1811.5,2018C 1819.81,2016.39 1828.14,2016.72 1836.5,2019C 1837,2019.5 1837.5,2020 1838,2020.5C 1838.33,2028.83 1838.67,2037.17 1839,2045.5C 1850.17,2033.17 1863.34,2023.67 1878.5,2017C 1884.56,2015.37 1890.56,2014.21 1896.5,2013.5 Z"/></g>
<g><path style="opacity:0.983" fill="#fefffe" d="M 2327.5,2013.5 C 2367.26,2015.09 2389.09,2035.75 2393,2075.5C 2393.67,2120.5 2393.67,2165.5 2393,2210.5C 2391.83,2211.89 2390.33,2212.73 2388.5,2213C 2380.5,2213.67 2372.5,2213.67 2364.5,2213C 2362.92,2212.29 2361.42,2211.46 2360,2210.5C 2359.67,2170.17 2359.33,2129.83 2359,2089.5C 2358.86,2075.07 2354.03,2062.57 2344.5,2052C 2333.89,2044.44 2322.22,2042.44 2309.5,2046C 2302.2,2048.98 2295.54,2052.98 2289.5,2058C 2282.63,2064.53 2276.13,2071.36 2270,2078.5C 2269.67,2122.5 2269.33,2166.5 2269,2210.5C 2267.83,2211.89 2266.33,2212.73 2264.5,2213C 2255.42,2213.91 2246.42,2213.58 2237.5,2212C 2237,2211.5 2236.5,2211 2236,2210.5C 2235.33,2147.17 2235.33,2083.83 2236,2020.5C 2236.9,2019.3 2238.07,2018.47 2239.5,2018C 2247.81,2016.39 2256.14,2016.72 2264.5,2019C 2265,2019.5 2265.5,2020 2266,2020.5C 2266.33,2028.83 2266.67,2037.17 2267,2045.5C 2279.1,2031.53 2293.93,2021.7 2311.5,2016C 2316.97,2015.13 2322.31,2014.3 2327.5,2013.5 Z"/></g>
<g><path style="opacity:0.971" fill="#fefffe" d="M 2748.5,2013.5 C 2791.33,2013.52 2817.83,2034.18 2828,2075.5C 2830.69,2089.15 2831.03,2102.81 2829,2116.5C 2826.34,2120.59 2822.5,2122.75 2817.5,2123C 2777.5,2123.5 2737.5,2123.67 2697.5,2123.5C 2697.85,2173.34 2722.85,2194.84 2772.5,2188C 2777.53,2187.16 2782.53,2186.16 2787.5,2185C 2797.05,2181.82 2806.55,2178.65 2816,2175.5C 2819.13,2175.28 2821.13,2176.62 2822,2179.5C 2822.67,2185.5 2822.67,2191.5 2822,2197.5C 2819.12,2202.21 2814.95,2205.37 2809.5,2207C 2783.19,2216.41 2756.19,2219.07 2728.5,2215C 2690.49,2206.65 2668.65,2183.15 2663,2144.5C 2658.86,2118.34 2660.86,2092.67 2669,2067.5C 2683.89,2032.47 2710.39,2014.47 2748.5,2013.5 Z M 2737.5,2041.5 C 2777.38,2038.71 2796.71,2057.37 2795.5,2097.5C 2762.83,2097.5 2730.17,2097.5 2697.5,2097.5C 2697.73,2078.22 2705.06,2062.39 2719.5,2050C 2725.21,2046.31 2731.21,2043.48 2737.5,2041.5 Z"/></g>
<g><path style="opacity:0.981" fill="#fefffe" d="M 2961.5,2013.5 C 2968.22,2014.1 2974.89,2015.27 2981.5,2017C 2984.2,2017.69 2986.36,2019.19 2988,2021.5C 2989.97,2030.82 2989.97,2040.16 2988,2049.5C 2987.1,2051.37 2985.6,2052.37 2983.5,2052.5C 2963.91,2042.91 2947.08,2046.24 2933,2062.5C 2926.94,2070.22 2921.28,2078.22 2916,2086.5C 2915.67,2127.83 2915.33,2169.17 2915,2210.5C 2913.83,2211.89 2912.33,2212.73 2910.5,2213C 2901.42,2213.91 2892.42,2213.58 2883.5,2212C 2883,2211.5 2882.5,2211 2882,2210.5C 2881.33,2147.17 2881.33,2083.83 2882,2020.5C 2882.9,2019.3 2884.07,2018.47 2885.5,2018C 2893.81,2016.39 2902.14,2016.72 2910.5,2019C 2911,2019.5 2911.5,2020 2912,2020.5C 2912.33,2029.5 2912.67,2038.5 2913,2047.5C 2921.26,2034.57 2932.1,2024.4 2945.5,2017C 2950.87,2015.36 2956.2,2014.2 2961.5,2013.5 Z"/></g>
<g><path style="opacity:0.989" fill="#fefffe" d="M 2156.5,2016.5 C 2160.78,2017.21 2165.12,2017.71 2169.5,2018C 2171.33,2018.27 2172.83,2019.11 2174,2020.5C 2174.67,2083.83 2174.67,2147.17 2174,2210.5C 2172.83,2211.89 2171.33,2212.73 2169.5,2213C 2161.5,2213.67 2153.5,2213.67 2145.5,2213C 2143.67,2212.73 2142.17,2211.89 2141,2210.5C 2140.33,2147.17 2140.33,2083.83 2141,2020.5C 2142.17,2019.11 2143.67,2018.27 2145.5,2018C 2149.36,2017.82 2153.02,2017.32 2156.5,2016.5 Z"/></g>
</svg>
