<?xml version="1.0" encoding="UTF-8"?>
<!DOCTYPE svg PUBLIC "-//W3C//DTD SVG 1.1//EN" "http://www.w3.org/Graphics/SVG/1.1/DTD/svg11.dtd">
<svg xmlns="http://www.w3.org/2000/svg" version="1.1" width="456px" height="456px" style="shape-rendering:geometricPrecision; text-rendering:geometricPrecision; image-rendering:optimizeQuality; fill-rule:evenodd; clip-rule:evenodd" xmlns:xlink="http://www.w3.org/1999/xlink">
<g><path style="opacity:1" fill="#fefffe" d="M 192.5,179.5 C 207.877,179.101 223.21,179.601 238.5,181C 257.44,187.42 263.607,200.254 257,219.5C 253.222,225.989 247.722,230.489 240.5,233C 243.63,235.128 246.463,237.628 249,240.5C 255.46,253.057 260.626,266.057 264.5,279.5C 257.428,280.966 250.428,280.799 243.5,279C 238.913,266.901 233.746,255.068 228,243.5C 223.085,238.962 217.251,237.295 210.5,238.5C 210.667,251.837 210.5,265.171 210,278.5C 203.333,281.167 196.667,281.167 190,278.5C 189.333,246.5 189.333,214.5 190,182.5C 191.045,181.627 191.878,180.627 192.5,179.5 Z M 210.5,195.5 C 217.257,195.123 223.924,195.623 230.5,197C 236.044,199.24 238.71,203.406 238.5,209.5C 237.857,216.976 233.857,221.476 226.5,223C 221.177,223.499 215.844,223.666 210.5,223.5C 210.5,214.167 210.5,204.833 210.5,195.5 Z"/></g>
</svg>
